<?xml version="1.0" standalone="no"?>
<!DOCTYPE svg PUBLIC "-//W3C//DTD SVG 20010904//EN"
 "http://www.w3.org/TR/2001/REC-SVG-20010904/DTD/svg10.dtd">
<svg version="1.0" xmlns="http://www.w3.org/2000/svg"
 width="250.000000pt" height="250.000000pt" viewBox="0 0 250.000000 250.000000"
 preserveAspectRatio="xMidYMid meet">
<metadata>
Created by potrace 1.14, written by Peter Selinger 2001-2017
</metadata>
<g transform="translate(0.000000,250.000000) scale(0.100000,-0.100000)"
fill="#000000" stroke="none">
<path d="M1149 2496 c-2 -2 -17 -6 -34 -9 -76 -13 -176 -54 -253 -103 -54 -35
-192 -167 -192 -184 0 -5 -6 -15 -13 -22 -25 -26 -86 -169 -89 -208 0 -3 -5
-16 -11 -30 -5 -14 -11 -95 -12 -182 -2 -86 -6 -161 -9 -166 -3 -6 -24 -13
-47 -17 -29 -5 -53 -19 -84 -49 -65 -63 -69 -75 -71 -226 -2 -74 -3 -144 -3
-155 -1 -19 -8 -20 -127 -21 -71 0 -129 -5 -132 -11 -4 -5 -14 -12 -23 -15 -9
-4 -23 -22 -32 -41 -14 -29 -17 -72 -17 -266 0 -323 5 -331 217 -334 l115 -2
2 -158 c1 -118 5 -160 15 -166 7 -5 12 -12 11 -17 -2 -15 52 -73 84 -92 29
-16 92 -17 786 -20 700 -2 758 -1 803 15 51 18 93 59 121 117 10 21 11 33 4
37 -6 4 -7 9 0 13 5 3 10 58 10 128 0 68 0 128 1 134 1 7 43 11 122 12 115 1
123 3 156 28 19 14 38 37 44 51 5 13 9 128 9 255 0 323 -5 331 -212 332 -111
1 -118 2 -119 21 0 11 -2 79 -3 150 -1 72 -8 142 -14 157 -16 39 -81 108 -101
108 -10 0 -21 3 -25 7 -3 4 -16 8 -28 10 -12 2 -27 8 -33 13 -13 11 -12 70 0
91 6 8 4 10 -4 4 -10 -6 -11 -3 -2 14 7 11 8 21 4 21 -4 0 -8 34 -7 76 0 83
-15 172 -41 237 -27 69 -59 131 -77 151 -10 11 -18 23 -18 27 0 11 -91 103
-140 142 -77 60 -192 114 -280 132 -39 8 -245 17 -251 11z m196 -342 c94 -22
200 -110 239 -196 37 -82 39 -94 41 -239 l1 -136 -375 1 -376 1 0 115 c-1 181
27 271 110 355 46 46 131 95 177 100 17 3 33 7 36 10 6 6 108 -1 147 -11z"/>
</g>
</svg>
